<?xml version="1.0" encoding="UTF-8" standalone="no"?><!DOCTYPE svg PUBLIC "-//W3C//DTD SVG 1.1//EN" "http://www.w3.org/Graphics/SVG/1.1/DTD/svg11.dtd"><svg width="100%" height="100%" viewBox="0 0 2009 1759" version="1.1" xmlns="http://www.w3.org/2000/svg" xmlns:xlink="http://www.w3.org/1999/xlink" xml:space="preserve" xmlns:serif="http://www.serif.com/" style="fill-rule:evenodd;clip-rule:evenodd;stroke-linejoin:round;stroke-miterlimit:2;"><g id="Layer1"><g><path d="M1584.17,186.25c-19.167,39.583 -71.667,127.083 -76.25,161.25l501.25,0c-0,6.667 -131.667,182.5 -192.084,253.75l-484.166,0c-18.75,23.75 -96.25,124.167 -96.25,124.167l717.083,-0c-39.583,58.75 -165.833,232.5 -165.833,232.5c-0,-0.834 -522.5,-0 -546.667,-0l0,212.083l-189.583,142.5l-417.5,0c-2.5,-10 450.833,-524.167 586.666,-705.833c57.917,-77.917 235,-335 279.167,-420c5.417,-10.834 41.25,-70 22.917,-88.334c-18.334,-18.75 -87.917,22.5 -120.834,48.334c-32.916,25.833 -95,80.416 -83.333,70.833c36.667,-58.75 227.917,-195.833 280.417,-205.417c20,-3.75 33.75,5.417 36.25,24.584c1.666,14.166 -11.667,68.333 -51.25,150.416l-0,-0.833Z" style="fill:#cdaa00;fill-rule:nonzero;"/><path d="M846.25,725.833l227.5,0c-7.917,11.25 -294.167,365.417 -384.167,462.5c-133.75,144.584 -300.833,304.584 -453.75,428.75c-37.5,30.417 -167.5,136.25 -211.25,130c-70.416,-10 93.334,-308.75 147.084,-338.75c-10.834,14.584 -73.334,102.917 -103.334,168.75c-5.416,11.667 -10.833,24.584 -2.916,30.834c11.666,8.75 40.833,5 76.666,-15.834c169.167,-112.916 463.334,-426.666 597.5,-592.916c7.917,-10 21.25,-22.084 21.25,-36.667l-137.083,-0c16.667,-17.083 34.167,-35 51.667,-53.333c65.833,-69.167 125.416,-133.334 170.833,-183.75l0,0.416Zm-263.75,237.084l-210,-0l0,349.583l-156.25,-0c-4.583,1.25 -138.75,-140 -138.75,-142.5l0,-822.5l1068.75,-0c0,-0 -125.833,171.25 -178.333,256.667l-595.417,-0l0,121.25l440,-0c-45.417,45 -100.417,100.833 -159.167,162.083c-24.583,25.833 -48.75,51.25 -71.25,75l0.417,0.417Z" style="fill:#1c5b8b;"/><path d="M1240.83,1170l-189.166,142.5l-0,-354.583l189.166,-0l0,212.083Z" style="fill:#b39b22;fill-rule:nonzero;"/><path d="M77.083,347.5l139.167,252.5l0,712.5l-139.167,-142.5l0,-822.5Z" style="fill:#3876a5;fill-rule:nonzero;"/></g></g></svg>