<?xml version="1.0" encoding="UTF-8" standalone="no"?><!DOCTYPE svg PUBLIC "-//W3C//DTD SVG 1.1//EN" "http://www.w3.org/Graphics/SVG/1.1/DTD/svg11.dtd"><svg width="100%" height="100%" viewBox="0 0 840 142" version="1.1" xmlns="http://www.w3.org/2000/svg" xmlns:xlink="http://www.w3.org/1999/xlink" xml:space="preserve" xmlns:serif="http://www.serif.com/" style="fill-rule:evenodd;clip-rule:evenodd;stroke-linejoin:round;stroke-miterlimit:1.5;"><rect id="Artboard1" x="-89" y="-439" width="1080" height="1080" style="fill:none;"/><g id="Artboard11" serif:id="Artboard1"><g><g><g><path d="M106.631,142.172l0,-29.794l12.493,0c3.228,0 5.72,0.724 7.477,2.171c1.756,1.446 2.634,3.569 2.634,6.368c0,1.508 -0.277,2.813 -0.832,3.913c-0.555,1.101 -1.323,2 -2.303,2.698c-0.981,0.697 -2.122,1.194 -3.425,1.489l0,0.208l0.231,0.105c0.494,0.197 0.956,0.51 1.385,0.939c0.429,0.429 0.876,1.087 1.34,1.974l5.251,9.929l-4.318,0l-4.87,-9.253c-0.413,-0.797 -0.861,-1.409 -1.344,-1.836c-0.483,-0.427 -1.052,-0.722 -1.707,-0.885c-0.655,-0.164 -1.452,-0.245 -2.392,-0.245l-5.695,-0l0,12.219l-3.925,0Zm3.925,-15.541l8.439,-0c2.22,-0 3.823,-0.459 4.81,-1.378c0.987,-0.918 1.481,-2.318 1.481,-4.199c-0,-1.867 -0.523,-3.213 -1.568,-4.036c-1.045,-0.824 -2.706,-1.236 -4.982,-1.236l-8.18,0l0,10.849Z" style="fill:#fff;fill-rule:nonzero;"/><path d="M137.953,142.172l-0,-29.794l19.717,0l-0,3.464l-15.792,-0l-0,9.512l14.927,-0l-0,3.462l-14.927,0l-0,9.893l15.792,-0l-0,3.463l-19.717,0Z" style="fill:#fff;fill-rule:nonzero;"/><path d="M162.099,142.172l13.083,-29.794l3.582,0l13.083,29.794l-4.133,0l-3.617,-8.482l1.953,1.326l-18.148,0l1.889,-1.326l-3.618,8.482l-4.074,0Zm14.75,-25.321l-6.636,15.607l-1.056,-0.845l15.638,-0l-1.144,0.845l-6.594,-15.607l-0.208,-0Z" style="fill:#fff;fill-rule:nonzero;"/><path d="M198.233,142.172l0,-29.794l3.925,0l0,26.291l15.11,0l0,3.503l-19.035,0Z" style="fill:#fff;fill-rule:nonzero;"/><path d="M241.483,142.172l0,-29.794l19.717,0l-0,3.464l-15.792,-0l0,9.512l14.927,-0l-0,3.462l-14.927,0l0,9.893l15.792,-0l-0,3.463l-19.717,0Z" style="fill:#fff;fill-rule:nonzero;"/><path d="M279.134,142.55c-1.677,-0 -3.272,-0.117 -4.784,-0.351c-1.512,-0.233 -2.89,-0.599 -4.134,-1.095c-1.244,-0.496 -2.322,-1.121 -3.235,-1.874l1.473,-3.251c0.988,0.782 2.042,1.397 3.161,1.845c1.12,0.447 2.31,0.756 3.571,0.926c1.261,0.17 2.577,0.255 3.948,0.255c2.24,-0 3.992,-0.455 5.256,-1.363c1.265,-0.908 1.898,-2.182 1.898,-3.822c-0,-0.882 -0.207,-1.594 -0.62,-2.137c-0.413,-0.543 -1.053,-0.987 -1.919,-1.331c-0.867,-0.344 -1.983,-0.645 -3.347,-0.902l-5.032,-0.976c-2.784,-0.537 -4.765,-1.489 -5.943,-2.856c-1.178,-1.368 -1.767,-3.068 -1.767,-5.101c-0,-1.728 0.509,-3.229 1.527,-4.501c1.018,-1.272 2.415,-2.259 4.191,-2.961c1.776,-0.703 3.793,-1.054 6.051,-1.054c1.437,-0 2.777,0.131 4.02,0.393c1.243,0.262 2.38,0.651 3.412,1.169c1.031,0.518 1.955,1.16 2.772,1.926l-1.495,3.252c-1.198,-1.194 -2.519,-2.025 -3.961,-2.493c-1.443,-0.468 -3.032,-0.702 -4.767,-0.702c-1.462,-0 -2.787,0.189 -3.974,0.568c-1.186,0.379 -2.125,0.936 -2.815,1.672c-0.691,0.736 -1.036,1.668 -1.036,2.796c-0,1.197 0.38,2.138 1.14,2.824c0.76,0.687 2.096,1.215 4.009,1.585l4.989,0.935c2.917,0.538 5.061,1.453 6.433,2.744c1.371,1.29 2.057,2.954 2.057,4.989c-0,1.711 -0.459,3.238 -1.378,4.579c-0.918,1.342 -2.204,2.396 -3.857,3.162c-1.654,0.767 -3.602,1.15 -5.844,1.15Z" style="fill:#fff;fill-rule:nonzero;"/><path d="M303.872,142.172l0,-26.291l-10.68,0l0,-3.503l25.286,0l0,3.503l-10.68,0l0,26.291l-3.926,0Z" style="fill:#fff;fill-rule:nonzero;"/><path d="M316.734,142.172l13.083,-29.794l3.582,0l13.083,29.794l-4.133,0l-3.618,-8.482l1.954,1.326l-18.148,0l1.889,-1.326l-3.618,8.482l-4.074,0Zm14.75,-25.321l-6.636,15.607l-1.056,-0.845l15.638,-0l-1.144,0.845l-6.594,-15.607l-0.208,-0Z" style="fill:#fff;fill-rule:nonzero;"/><path d="M355.418,142.172l0,-26.291l-10.68,0l0,-3.503l25.286,0l0,3.503l-10.68,0l-0,26.291l-3.926,0Z" style="fill:#fff;fill-rule:nonzero;"/><path d="M376.051,142.172l-0,-29.794l19.716,0l0,3.464l-15.791,-0l-0,9.512l14.926,-0l0,3.462l-14.926,0l-0,9.893l15.791,-0l0,3.463l-19.716,0Z" style="fill:#fff;fill-rule:nonzero;"/><rect x="422.009" y="112.378" width="3.925" height="29.794" style="fill:#fff;fill-rule:nonzero;"/><path d="M435.411,142.172l0,-29.794l3.65,0l17.944,23.742l0.208,0l0,-23.742l3.801,0l0,29.794l-3.805,0l-17.788,-23.583l-0.209,-0l0,23.583l-3.801,0Z" style="fill:#fff;fill-rule:nonzero;"/><path d="M478.74,142.172l-12.817,-29.794l4.232,0l10.21,24.605l0.208,-0l10.209,-24.605l4.233,0l-12.837,29.794l-3.438,0Z" style="fill:#fff;fill-rule:nonzero;"/><path d="M499.924,142.172l-0,-29.794l19.717,0l-0,3.464l-15.792,-0l-0,9.512l14.927,-0l-0,3.462l-14.927,0l-0,9.893l15.792,-0l-0,3.463l-19.717,0Z" style="fill:#fff;fill-rule:nonzero;"/><path d="M537.575,142.55c-1.677,-0 -3.272,-0.117 -4.784,-0.351c-1.513,-0.233 -2.891,-0.599 -4.134,-1.095c-1.244,-0.496 -2.322,-1.121 -3.235,-1.874l1.473,-3.251c0.988,0.782 2.041,1.397 3.161,1.845c1.119,0.447 2.31,0.756 3.571,0.926c1.261,0.17 2.577,0.255 3.948,0.255c2.239,-0 3.991,-0.455 5.256,-1.363c1.265,-0.908 1.897,-2.182 1.897,-3.822c0,-0.882 -0.206,-1.594 -0.619,-2.137c-0.413,-0.543 -1.053,-0.987 -1.92,-1.331c-0.866,-0.344 -1.982,-0.645 -3.346,-0.902l-5.032,-0.976c-2.784,-0.537 -4.765,-1.489 -5.943,-2.856c-1.178,-1.368 -1.767,-3.068 -1.767,-5.101c-0,-1.728 0.509,-3.229 1.527,-4.501c1.018,-1.272 2.415,-2.259 4.191,-2.961c1.775,-0.703 3.792,-1.054 6.051,-1.054c1.437,-0 2.777,0.131 4.02,0.393c1.243,0.262 2.38,0.651 3.411,1.169c1.032,0.518 1.956,1.16 2.773,1.926l-1.495,3.252c-1.199,-1.194 -2.519,-2.025 -3.962,-2.493c-1.442,-0.468 -3.031,-0.702 -4.767,-0.702c-1.462,-0 -2.786,0.189 -3.973,0.568c-1.187,0.379 -2.125,0.936 -2.816,1.672c-0.69,0.736 -1.035,1.668 -1.035,2.796c-0,1.197 0.38,2.138 1.14,2.824c0.76,0.687 2.096,1.215 4.009,1.585l4.989,0.935c2.917,0.538 5.061,1.453 6.432,2.744c1.372,1.29 2.057,2.954 2.057,4.989c0,1.711 -0.459,3.238 -1.377,4.579c-0.918,1.342 -2.204,2.396 -3.857,3.162c-1.654,0.767 -3.602,1.15 -5.844,1.15Z" style="fill:#fff;fill-rule:nonzero;"/><path d="M562.313,142.172l0,-26.291l-10.68,0l0,-3.503l25.286,0l-0,3.503l-10.68,0l-0,26.291l-3.926,0Z" style="fill:#fff;fill-rule:nonzero;"/><path d="M583.03,142.172l0,-29.794l4.847,0l10.062,20.517l0.208,0l10.018,-20.517l4.807,0l0,29.794l-3.8,0l-0,-24.115l-0.209,0l-9.454,19.328l-2.971,-0l-9.498,-19.328l-0.209,0l-0,24.115l-3.801,0Z" style="fill:#fff;fill-rule:nonzero;"/><path d="M622.535,142.172l0,-29.794l19.717,0l-0,3.464l-15.792,-0l0,9.512l14.927,-0l-0,3.462l-14.927,0l0,9.893l15.792,-0l-0,3.463l-19.717,0Z" style="fill:#fff;fill-rule:nonzero;"/><path d="M650.635,142.172l0,-29.794l3.65,0l17.944,23.742l0.208,0l0,-23.742l3.801,0l0,29.794l-3.805,0l-17.788,-23.583l-0.209,-0l0,23.583l-3.801,0Z" style="fill:#fff;fill-rule:nonzero;"/><path d="M692.945,142.172l-0,-26.291l-10.68,0l-0,-3.503l25.286,0l-0,3.503l-10.68,0l-0,26.291l-3.926,0Z" style="fill:#fff;fill-rule:nonzero;"/><path d="M722.266,142.55c-1.677,-0 -3.272,-0.117 -4.784,-0.351c-1.512,-0.233 -2.89,-0.599 -4.134,-1.095c-1.244,-0.496 -2.322,-1.121 -3.235,-1.874l1.473,-3.251c0.988,0.782 2.042,1.397 3.161,1.845c1.12,0.447 2.31,0.756 3.571,0.926c1.261,0.17 2.577,0.255 3.948,0.255c2.24,-0 3.992,-0.455 5.256,-1.363c1.265,-0.908 1.898,-2.182 1.898,-3.822c-0,-0.882 -0.207,-1.594 -0.62,-2.137c-0.413,-0.543 -1.053,-0.987 -1.919,-1.331c-0.867,-0.344 -1.983,-0.645 -3.347,-0.902l-5.032,-0.976c-2.784,-0.537 -4.765,-1.489 -5.943,-2.856c-1.178,-1.368 -1.767,-3.068 -1.767,-5.101c-0,-1.728 0.509,-3.229 1.527,-4.501c1.018,-1.272 2.415,-2.259 4.191,-2.961c1.776,-0.703 3.793,-1.054 6.051,-1.054c1.437,-0 2.777,0.131 4.02,0.393c1.243,0.262 2.38,0.651 3.412,1.169c1.031,0.518 1.955,1.16 2.772,1.926l-1.495,3.252c-1.198,-1.194 -2.519,-2.025 -3.961,-2.493c-1.443,-0.468 -3.032,-0.702 -4.767,-0.702c-1.462,-0 -2.787,0.189 -3.974,0.568c-1.186,0.379 -2.125,0.936 -2.815,1.672c-0.691,0.736 -1.036,1.668 -1.036,2.796c-0,1.197 0.38,2.138 1.14,2.824c0.76,0.687 2.096,1.215 4.009,1.585l4.989,0.935c2.917,0.538 5.061,1.453 6.433,2.744c1.371,1.29 2.057,2.954 2.057,4.989c-0,1.711 -0.459,3.238 -1.378,4.579c-0.918,1.342 -2.204,2.396 -3.857,3.162c-1.654,0.767 -3.602,1.15 -5.844,1.15Z" style="fill:#fff;fill-rule:nonzero;"/></g><path d="M88.043,125.812l-81.734,0" style="fill:none;stroke:#fff;stroke-width:3.75px;"/><path d="M834.588,125.812l-81.735,0" style="fill:none;stroke:#fff;stroke-width:3.75px;"/></g><g><path d="M6.769,81.269l0,-68.828l64.886,-0l-0,7.169l-56.282,0l-0,22.943l53.728,0l-0,7.17l-53.728,-0l-0,31.546l-8.604,0Z" style="fill:#fff;fill-rule:nonzero;"/><rect x="82.051" y="29.648" width="6.453" height="51.622" style="fill:#fff;fill-rule:nonzero;"/><path d="M101.409,81.269l0,-51.621l6.722,-0l51.856,43.656l0.068,0l-0,-43.656l6.452,-0l0,51.621l-6.721,0l-51.857,-44.026l-0.067,0l-0,44.026l-6.453,0Z" style="fill:#fff;fill-rule:nonzero;"/><path d="M175.111,81.269l30.113,-51.621l8.603,-0l30.113,51.621l-7.528,0l-6.453,-11.829l-40.867,-0l-6.453,11.829l-7.528,0Zm17.207,-17.207l34.415,0l-17.208,-30.112l-17.207,30.112Z" style="fill:#fff;fill-rule:nonzero;"/><path d="M252.543,81.269l0,-51.621l6.453,-0l0,46.244l40.867,0l0,5.377l-47.32,0Z" style="fill:#fff;fill-rule:nonzero;"/><path d="M336.698,81.269l-0,-68.828l64.885,-0l0,7.169l-56.282,0l0,22.943l53.728,0l-0,7.17l-53.728,-0l0,31.546l-8.603,0Z" style="fill:#fff;fill-rule:nonzero;"/><path d="M412.114,81.269l-0,-51.621l34.548,-0c5.042,-0 9.103,0.224 12.183,0.672c3.081,0.448 5.417,1.221 7.007,2.319c1.591,1.098 2.667,2.599 3.227,4.503c0.56,1.905 0.84,4.313 0.84,7.226l0,1.344c0,3.652 -0.644,6.431 -1.932,8.335c-1.289,1.905 -3.468,3.103 -6.537,3.596c3.069,0.493 5.248,1.669 6.537,3.529c1.288,1.86 1.932,4.47 1.932,7.831l0,12.266l-6.453,0l0,-11.258c0,-1.994 -0.129,-3.624 -0.386,-4.89c-0.258,-1.266 -0.908,-2.241 -1.949,-2.924c-1.042,-0.683 -2.695,-1.154 -4.958,-1.412c-2.263,-0.257 -5.399,-0.386 -9.41,-0.386l-28.197,0l0,20.87l-6.452,0Zm51.352,-36.901c0,-2.128 -0.201,-3.809 -0.605,-5.041c-0.403,-1.232 -1.209,-2.14 -2.419,-2.722c-1.21,-0.583 -3.014,-0.958 -5.411,-1.126c-2.398,-0.168 -5.602,-0.252 -9.612,-0.252l-26.853,-0l0,19.593l28.533,0c3.832,0 6.851,-0.129 9.058,-0.386c2.207,-0.258 3.831,-0.712 4.873,-1.362c1.042,-0.649 1.708,-1.568 1.999,-2.755c0.292,-1.188 0.437,-2.723 0.437,-4.605l0,-1.344Z" style="fill:#fff;fill-rule:nonzero;"/><path d="M504.938,82.345c-5.041,-0 -9.186,-0.342 -12.434,-1.025c-3.249,-0.683 -5.787,-1.944 -7.613,-3.781c-1.826,-1.837 -3.103,-4.481 -3.831,-7.931c-0.728,-3.451 -1.092,-7.943 -1.092,-13.477l-0,-1.345c-0,-4.57 0.224,-8.407 0.672,-11.51c0.448,-3.103 1.221,-5.63 2.319,-7.579c1.098,-1.949 2.593,-3.439 4.487,-4.47c1.893,-1.03 4.273,-1.73 7.141,-2.1c2.868,-0.37 6.318,-0.555 10.351,-0.555l13.544,0c4.033,0 7.484,0.185 10.352,0.555c2.867,0.37 5.248,1.07 7.141,2.1c1.893,1.031 3.389,2.521 4.487,4.47c1.098,1.949 1.871,4.476 2.319,7.579c0.448,3.103 0.672,6.94 0.672,11.51l0,1.345c0,5.534 -0.364,10.026 -1.092,13.477c-0.728,3.45 -2.006,6.094 -3.832,7.931c-1.826,1.837 -4.363,3.098 -7.612,3.781c-3.248,0.683 -7.393,1.025 -12.435,1.025l-13.544,-0Zm0,-5.579l13.544,0c3.204,0 5.904,-0.112 8.1,-0.336c2.196,-0.224 3.982,-0.706 5.36,-1.445c1.378,-0.74 2.431,-1.86 3.159,-3.361c0.729,-1.501 1.227,-3.506 1.496,-6.016c0.269,-2.509 0.403,-5.668 0.403,-9.477l0,-1.345c0,-3.943 -0.134,-7.192 -0.403,-9.746c-0.269,-2.554 -0.767,-4.57 -1.496,-6.049c-0.728,-1.479 -1.781,-2.56 -3.159,-3.243c-1.378,-0.684 -3.164,-1.121 -5.36,-1.311c-2.196,-0.191 -4.896,-0.286 -8.1,-0.286l-13.544,0c-3.204,0 -5.903,0.095 -8.099,0.286c-2.196,0.19 -3.983,0.627 -5.361,1.311c-1.377,0.683 -2.43,1.764 -3.159,3.243c-0.728,1.479 -1.226,3.495 -1.495,6.049c-0.269,2.554 -0.404,5.803 -0.404,9.746l0,1.345c0,3.809 0.135,6.968 0.404,9.477c0.269,2.51 0.767,4.515 1.495,6.016c0.729,1.501 1.782,2.621 3.159,3.361c1.378,0.739 3.165,1.221 5.361,1.445c2.196,0.224 4.895,0.336 8.099,0.336Z" style="fill:#fff;fill-rule:nonzero;"/><path d="M554.208,81.269l-0,-51.621l6.721,-0l51.857,43.656l0.067,0l0,-43.656l6.453,-0l-0,51.621l-6.722,0l-51.857,-44.026l-0.067,0l0,44.026l-6.452,0Z" style="fill:#fff;fill-rule:nonzero;"/><path d="M654.729,81.269l-0,-46.244l-25.811,0l-0,-5.377l58.074,-0l0,5.377l-25.811,0l0,46.244l-6.452,0Z" style="fill:#fff;fill-rule:nonzero;"/><rect x="696.604" y="29.648" width="6.453" height="51.622" style="fill:#fff;fill-rule:nonzero;"/><path d="M715.962,81.269l0,-51.621l50.681,-0l-0,5.377l-44.228,0l-0,17.207l42.379,0l0,5.378l-42.379,-0l-0,18.282l45.169,0l-0,5.377l-51.622,0Z" style="fill:#fff;fill-rule:nonzero;"/><path d="M776.322,81.269l-0,-51.621l34.549,-0c5.041,-0 9.102,0.224 12.182,0.672c3.081,0.448 5.417,1.221 7.008,2.319c1.59,1.098 2.666,2.599 3.226,4.503c0.56,1.905 0.84,4.313 0.84,7.226l0,1.344c0,3.652 -0.644,6.431 -1.932,8.335c-1.288,1.905 -3.467,3.103 -6.537,3.596c3.07,0.493 5.249,1.669 6.537,3.529c1.288,1.86 1.932,4.47 1.932,7.831l0,12.266l-6.452,0l-0,-11.258c-0,-1.994 -0.129,-3.624 -0.387,-4.89c-0.258,-1.266 -0.907,-2.241 -1.949,-2.924c-1.042,-0.683 -2.694,-1.154 -4.957,-1.412c-2.263,-0.257 -5.4,-0.386 -9.411,-0.386l-28.197,0l0,20.87l-6.452,0Zm51.353,-36.901c-0,-2.128 -0.202,-3.809 -0.605,-5.041c-0.404,-1.232 -1.21,-2.14 -2.42,-2.722c-1.21,-0.583 -3.014,-0.958 -5.411,-1.126c-2.397,-0.168 -5.601,-0.252 -9.612,-0.252l-26.853,-0l0,19.593l28.534,0c3.831,0 6.85,-0.129 9.057,-0.386c2.207,-0.258 3.831,-0.712 4.873,-1.362c1.042,-0.649 1.708,-1.568 2,-2.755c0.291,-1.188 0.437,-2.723 0.437,-4.605l-0,-1.344Z" style="fill:#fff;fill-rule:nonzero;"/></g></g></g></svg>