<svg xmlns="http://www.w3.org/2000/svg" xmlns:xlink="http://www.w3.org/1999/xlink" width="500" zoomAndPan="magnify" viewBox="0 0 375 374.999991" height="500" preserveAspectRatio="xMidYMid meet" version="1.0"><defs><g/></defs><g fill="#ffffff" fill-opacity="1"><g transform="translate(49.732871, 179.385999)"><g><path d="M 16.1875 -13.84375 C 16.445312 -13.84375 16.578125 -13.710938 16.578125 -13.453125 L 16.578125 -11.46875 C 16.578125 -11.207031 16.445312 -11.078125 16.1875 -11.078125 L 5.34375 -11.078125 L 5.34375 -7.578125 L 13.703125 -7.578125 C 13.972656 -7.578125 14.109375 -7.445312 14.109375 -7.1875 L 14.109375 -5.203125 C 14.109375 -4.941406 13.972656 -4.8125 13.703125 -4.8125 L 5.34375 -4.8125 L 5.34375 -0.390625 C 5.34375 -0.128906 5.210938 0 4.953125 0 L 2.46875 0 C 2.207031 0 2.078125 -0.128906 2.078125 -0.390625 L 2.078125 -13.453125 C 2.078125 -13.710938 2.207031 -13.84375 2.46875 -13.84375 Z M 16.1875 -13.84375 "/></g></g></g><g fill="#ffffff" fill-opacity="1"><g transform="translate(69.068826, 179.385999)"><g><path d="M 9.59375 -11.234375 L 9.59375 -2.625 L 14.40625 -2.625 C 14.664062 -2.625 14.796875 -2.492188 14.796875 -2.234375 L 14.796875 -0.390625 C 14.796875 -0.128906 14.664062 0 14.40625 0 L 1.546875 0 C 1.273438 0 1.140625 -0.128906 1.140625 -0.390625 L 1.140625 -2.234375 C 1.140625 -2.492188 1.273438 -2.625 1.546875 -2.625 L 6.328125 -2.625 L 6.328125 -11.234375 L 1.546875 -11.234375 C 1.273438 -11.234375 1.140625 -11.363281 1.140625 -11.625 L 1.140625 -13.453125 C 1.140625 -13.710938 1.273438 -13.84375 1.546875 -13.84375 L 14.40625 -13.84375 C 14.664062 -13.84375 14.796875 -13.710938 14.796875 -13.453125 L 14.796875 -11.625 C 14.796875 -11.363281 14.664062 -11.234375 14.40625 -11.234375 Z M 9.59375 -11.234375 "/></g></g></g><g fill="#ffffff" fill-opacity="1"><g transform="translate(87.277916, 179.385999)"><g><path d="M 2.46875 0 C 2.207031 0 2.078125 -0.128906 2.078125 -0.390625 L 2.078125 -13.453125 C 2.078125 -13.710938 2.207031 -13.84375 2.46875 -13.84375 L 5.421875 -13.84375 C 5.671875 -13.84375 5.90625 -13.742188 6.125 -13.546875 L 15.890625 -3.953125 L 16.015625 -3.953125 L 16.015625 -13.453125 C 16.015625 -13.710938 16.148438 -13.84375 16.421875 -13.84375 L 18.890625 -13.84375 C 19.148438 -13.84375 19.28125 -13.710938 19.28125 -13.453125 L 19.28125 -0.390625 C 19.28125 -0.128906 19.148438 0 18.890625 0 L 16.046875 0 C 15.773438 0 15.539062 -0.0976562 15.34375 -0.296875 L 5.5 -10.015625 L 5.34375 -10.015625 L 5.34375 -0.390625 C 5.34375 -0.128906 5.210938 0 4.953125 0 Z M 2.46875 0 "/></g></g></g><g fill="#ffffff" fill-opacity="1"><g transform="translate(110.903849, 179.385999)"><g><path d="M 17.84375 -0.640625 C 17.894531 -0.546875 17.921875 -0.445312 17.921875 -0.34375 C 17.921875 -0.113281 17.773438 0 17.484375 0 L 15.046875 0 C 14.890625 0 14.769531 -0.0234375 14.6875 -0.078125 C 14.601562 -0.140625 14.519531 -0.238281 14.4375 -0.375 L 13.140625 -2.765625 L 4.453125 -2.765625 L 3.140625 -0.375 C 3.015625 -0.125 2.8125 0 2.53125 0 L 0.078125 0 C -0.0546875 0 -0.160156 -0.03125 -0.234375 -0.09375 C -0.304688 -0.164062 -0.34375 -0.253906 -0.34375 -0.359375 C -0.34375 -0.460938 -0.3125 -0.5625 -0.25 -0.65625 L 6.96875 -13.484375 C 7.09375 -13.722656 7.296875 -13.84375 7.578125 -13.84375 L 10.015625 -13.84375 C 10.285156 -13.84375 10.488281 -13.722656 10.625 -13.484375 Z M 8.71875 -10.828125 L 5.75 -5.34375 L 11.828125 -5.34375 L 8.859375 -10.828125 Z M 8.71875 -10.828125 "/></g></g></g><g fill="#ffffff" fill-opacity="1"><g transform="translate(130.753814, 179.385999)"><g><path d="M 2.46875 0 C 2.207031 0 2.078125 -0.128906 2.078125 -0.390625 L 2.078125 -13.453125 C 2.078125 -13.710938 2.207031 -13.84375 2.46875 -13.84375 L 4.953125 -13.84375 C 5.210938 -13.84375 5.34375 -13.710938 5.34375 -13.453125 L 5.34375 -2.8125 L 15.71875 -2.8125 C 15.988281 -2.8125 16.125 -2.675781 16.125 -2.40625 L 16.125 -0.390625 C 16.125 -0.128906 15.988281 0 15.71875 0 Z M 2.46875 0 "/></g></g></g><g fill="#ffffff" fill-opacity="1"><g transform="translate(149.397835, 179.385999)"><g/></g></g><g fill="#ffffff" fill-opacity="1"><g transform="translate(158.987434, 179.385999)"><g><path d="M 16.1875 -13.84375 C 16.445312 -13.84375 16.578125 -13.710938 16.578125 -13.453125 L 16.578125 -11.46875 C 16.578125 -11.207031 16.445312 -11.078125 16.1875 -11.078125 L 5.34375 -11.078125 L 5.34375 -7.578125 L 13.703125 -7.578125 C 13.972656 -7.578125 14.109375 -7.445312 14.109375 -7.1875 L 14.109375 -5.203125 C 14.109375 -4.941406 13.972656 -4.8125 13.703125 -4.8125 L 5.34375 -4.8125 L 5.34375 -0.390625 C 5.34375 -0.128906 5.210938 0 4.953125 0 L 2.46875 0 C 2.207031 0 2.078125 -0.128906 2.078125 -0.390625 L 2.078125 -13.453125 C 2.078125 -13.710938 2.207031 -13.84375 2.46875 -13.84375 Z M 16.1875 -13.84375 "/></g></g></g><g fill="#ffffff" fill-opacity="1"><g transform="translate(178.323393, 179.385999)"><g><path d="M 17.609375 -7.96875 C 17.609375 -6.90625 17.351562 -6.117188 16.84375 -5.609375 C 16.332031 -5.097656 15.550781 -4.84375 14.5 -4.84375 L 12.765625 -4.84375 L 17.125 -0.75 C 17.257812 -0.632812 17.328125 -0.503906 17.328125 -0.359375 C 17.328125 -0.253906 17.285156 -0.164062 17.203125 -0.09375 C 17.128906 -0.03125 17.019531 0 16.875 0 L 14.1875 0 C 13.90625 0 13.664062 -0.0976562 13.46875 -0.296875 L 8.625 -4.84375 L 5.34375 -4.84375 L 5.34375 -0.390625 C 5.34375 -0.128906 5.210938 0 4.953125 0 L 2.46875 0 C 2.207031 0 2.078125 -0.128906 2.078125 -0.390625 L 2.078125 -13.453125 C 2.078125 -13.710938 2.207031 -13.84375 2.46875 -13.84375 L 14.5 -13.84375 C 15.550781 -13.84375 16.332031 -13.585938 16.84375 -13.078125 C 17.351562 -12.578125 17.609375 -11.796875 17.609375 -10.734375 Z M 14.34375 -10.09375 C 14.34375 -10.507812 14.25 -10.8125 14.0625 -11 C 13.875 -11.1875 13.570312 -11.28125 13.15625 -11.28125 L 5.34375 -11.28125 L 5.34375 -7.421875 L 13.15625 -7.421875 C 13.570312 -7.421875 13.875 -7.515625 14.0625 -7.703125 C 14.25 -7.890625 14.34375 -8.191406 14.34375 -8.609375 Z M 14.34375 -10.09375 "/></g></g></g><g fill="#ffffff" fill-opacity="1"><g transform="translate(199.675836, 179.385999)"><g><path d="M 5.53125 0 C 4.351562 0 3.457031 -0.304688 2.84375 -0.921875 C 2.238281 -1.535156 1.9375 -2.4375 1.9375 -3.625 L 1.9375 -10.25 C 1.9375 -11.4375 2.238281 -12.332031 2.84375 -12.9375 C 3.457031 -13.539062 4.351562 -13.84375 5.53125 -13.84375 L 16.515625 -13.84375 C 17.703125 -13.84375 18.601562 -13.539062 19.21875 -12.9375 C 19.832031 -12.332031 20.140625 -11.4375 20.140625 -10.25 L 20.140625 -3.625 C 20.140625 -2.4375 19.832031 -1.535156 19.21875 -0.921875 C 18.601562 -0.304688 17.703125 0 16.515625 0 Z M 15.375 -2.765625 C 15.894531 -2.765625 16.273438 -2.882812 16.515625 -3.125 C 16.753906 -3.363281 16.875 -3.742188 16.875 -4.265625 L 16.875 -9.578125 C 16.875 -10.097656 16.753906 -10.476562 16.515625 -10.71875 C 16.273438 -10.957031 15.894531 -11.078125 15.375 -11.078125 L 6.703125 -11.078125 C 6.179688 -11.078125 5.800781 -10.957031 5.5625 -10.71875 C 5.320312 -10.476562 5.203125 -10.097656 5.203125 -9.578125 L 5.203125 -4.265625 C 5.203125 -3.742188 5.320312 -3.363281 5.5625 -3.125 C 5.800781 -2.882812 6.179688 -2.765625 6.703125 -2.765625 Z M 15.375 -2.765625 "/></g></g></g><g fill="#ffffff" fill-opacity="1"><g transform="translate(224.01348, 179.385999)"><g><path d="M 2.46875 0 C 2.207031 0 2.078125 -0.128906 2.078125 -0.390625 L 2.078125 -13.453125 C 2.078125 -13.710938 2.207031 -13.84375 2.46875 -13.84375 L 5.421875 -13.84375 C 5.671875 -13.84375 5.90625 -13.742188 6.125 -13.546875 L 15.890625 -3.953125 L 16.015625 -3.953125 L 16.015625 -13.453125 C 16.015625 -13.710938 16.148438 -13.84375 16.421875 -13.84375 L 18.890625 -13.84375 C 19.148438 -13.84375 19.28125 -13.710938 19.28125 -13.453125 L 19.28125 -0.390625 C 19.28125 -0.128906 19.148438 0 18.890625 0 L 16.046875 0 C 15.773438 0 15.539062 -0.0976562 15.34375 -0.296875 L 5.5 -10.015625 L 5.34375 -10.015625 L 5.34375 -0.390625 C 5.34375 -0.128906 5.210938 0 4.953125 0 Z M 2.46875 0 "/></g></g></g><g fill="#ffffff" fill-opacity="1"><g transform="translate(247.639406, 179.385999)"><g><path d="M 16.8125 -13.84375 C 17.070312 -13.84375 17.203125 -13.710938 17.203125 -13.453125 L 17.203125 -11.28125 C 17.203125 -11.007812 17.070312 -10.875 16.8125 -10.875 L 10.34375 -10.875 L 10.34375 -0.390625 C 10.34375 -0.128906 10.210938 0 9.953125 0 L 7.484375 0 C 7.210938 0 7.078125 -0.128906 7.078125 -0.390625 L 7.078125 -10.875 L 0.59375 -10.875 C 0.332031 -10.875 0.203125 -11.007812 0.203125 -11.28125 L 0.203125 -13.453125 C 0.203125 -13.710938 0.332031 -13.84375 0.59375 -13.84375 Z M 16.8125 -13.84375 "/></g></g></g><g fill="#ffffff" fill-opacity="1"><g transform="translate(267.311432, 179.385999)"><g><path d="M 9.59375 -11.234375 L 9.59375 -2.625 L 14.40625 -2.625 C 14.664062 -2.625 14.796875 -2.492188 14.796875 -2.234375 L 14.796875 -0.390625 C 14.796875 -0.128906 14.664062 0 14.40625 0 L 1.546875 0 C 1.273438 0 1.140625 -0.128906 1.140625 -0.390625 L 1.140625 -2.234375 C 1.140625 -2.492188 1.273438 -2.625 1.546875 -2.625 L 6.328125 -2.625 L 6.328125 -11.234375 L 1.546875 -11.234375 C 1.273438 -11.234375 1.140625 -11.363281 1.140625 -11.625 L 1.140625 -13.453125 C 1.140625 -13.710938 1.273438 -13.84375 1.546875 -13.84375 L 14.40625 -13.84375 C 14.664062 -13.84375 14.796875 -13.710938 14.796875 -13.453125 L 14.796875 -11.625 C 14.796875 -11.363281 14.664062 -11.234375 14.40625 -11.234375 Z M 9.59375 -11.234375 "/></g></g></g><g fill="#ffffff" fill-opacity="1"><g transform="translate(285.520514, 179.385999)"><g><path d="M 16.90625 -2.671875 C 17.175781 -2.671875 17.3125 -2.539062 17.3125 -2.28125 L 17.3125 -0.390625 C 17.3125 -0.128906 17.175781 0 16.90625 0 L 2.46875 0 C 2.207031 0 2.078125 -0.128906 2.078125 -0.390625 L 2.078125 -13.453125 C 2.078125 -13.710938 2.207031 -13.84375 2.46875 -13.84375 L 16.71875 -13.84375 C 16.976562 -13.84375 17.109375 -13.710938 17.109375 -13.453125 L 17.109375 -11.578125 C 17.109375 -11.304688 16.976562 -11.171875 16.71875 -11.171875 L 5.34375 -11.171875 L 5.34375 -8.265625 L 14.34375 -8.265625 C 14.601562 -8.265625 14.734375 -8.132812 14.734375 -7.875 L 14.734375 -6.09375 C 14.734375 -5.832031 14.601562 -5.703125 14.34375 -5.703125 L 5.34375 -5.703125 L 5.34375 -2.671875 Z M 16.90625 -2.671875 "/></g></g></g><g fill="#ffffff" fill-opacity="1"><g transform="translate(306.181013, 179.385999)"><g><path d="M 17.609375 -7.96875 C 17.609375 -6.90625 17.351562 -6.117188 16.84375 -5.609375 C 16.332031 -5.097656 15.550781 -4.84375 14.5 -4.84375 L 12.765625 -4.84375 L 17.125 -0.75 C 17.257812 -0.632812 17.328125 -0.503906 17.328125 -0.359375 C 17.328125 -0.253906 17.285156 -0.164062 17.203125 -0.09375 C 17.128906 -0.03125 17.019531 0 16.875 0 L 14.1875 0 C 13.90625 0 13.664062 -0.0976562 13.46875 -0.296875 L 8.625 -4.84375 L 5.34375 -4.84375 L 5.34375 -0.390625 C 5.34375 -0.128906 5.210938 0 4.953125 0 L 2.46875 0 C 2.207031 0 2.078125 -0.128906 2.078125 -0.390625 L 2.078125 -13.453125 C 2.078125 -13.710938 2.207031 -13.84375 2.46875 -13.84375 L 14.5 -13.84375 C 15.550781 -13.84375 16.332031 -13.585938 16.84375 -13.078125 C 17.351562 -12.578125 17.609375 -11.796875 17.609375 -10.734375 Z M 14.34375 -10.09375 C 14.34375 -10.507812 14.25 -10.8125 14.0625 -11 C 13.875 -11.1875 13.570312 -11.28125 13.15625 -11.28125 L 5.34375 -11.28125 L 5.34375 -7.421875 L 13.15625 -7.421875 C 13.570312 -7.421875 13.875 -7.515625 14.0625 -7.703125 C 14.25 -7.890625 14.34375 -8.191406 14.34375 -8.609375 Z M 14.34375 -10.09375 "/></g></g></g><g fill="#ffffff" fill-opacity="1"><g transform="translate(69.839426, 200.786777)"><g><path d="M 0.609375 -6.625 L 5.015625 -6.625 C 5.285156 -6.625 5.507812 -6.53125 5.6875 -6.34375 C 5.863281 -6.164062 5.953125 -5.945312 5.953125 -5.6875 L 5.953125 -3.25 C 5.953125 -2.988281 5.863281 -2.765625 5.6875 -2.578125 C 5.507812 -2.390625 5.285156 -2.296875 5.015625 -2.296875 L 4.96875 -2.296875 L 6.46875 0 L 5.375 0 L 3.890625 -2.296875 L 1.515625 -2.296875 L 1.515625 0 L 0.609375 0 Z M 1.515625 -3.171875 L 4.65625 -3.171875 C 4.769531 -3.171875 4.863281 -3.207031 4.9375 -3.28125 C 5.019531 -3.351562 5.0625 -3.441406 5.0625 -3.546875 L 5.0625 -5.359375 C 5.0625 -5.472656 5.019531 -5.566406 4.9375 -5.640625 C 4.863281 -5.710938 4.769531 -5.75 4.65625 -5.75 L 1.515625 -5.75 Z M 1.515625 -3.171875 "/></g></g></g><g fill="#ffffff" fill-opacity="1"><g transform="translate(81.686737, 200.786777)"><g><path d="M 0.609375 -6.625 L 5.53125 -6.625 L 5.53125 -5.75 L 1.515625 -5.75 L 1.515625 -3.75 L 4.59375 -3.75 L 4.59375 -2.875 L 1.515625 -2.875 L 1.515625 -0.875 L 5.53125 -0.875 L 5.53125 0 L 0.609375 0 Z M 0.609375 -6.625 "/></g></g></g><g fill="#ffffff" fill-opacity="1"><g transform="translate(92.681729, 200.786777)"><g><path d="M 2.59375 -6.625 L 3.984375 -6.625 L 6.484375 0 L 5.53125 0 L 4.859375 -1.75 L 1.71875 -1.75 L 1.03125 0 L 0.09375 0 Z M 2.046875 -2.625 L 4.53125 -2.625 L 3.28125 -5.859375 Z M 2.046875 -2.625 "/></g></g></g><g fill="#ffffff" fill-opacity="1"><g transform="translate(104.588702, 200.786777)"><g><path d="M 0.609375 -6.625 L 1.515625 -6.625 L 1.515625 -0.875 L 5.53125 -0.875 L 5.53125 0 L 0.609375 0 Z M 0.609375 -6.625 "/></g></g></g><g fill="#ffffff" fill-opacity="1"><g transform="translate(115.489936, 200.786777)"><g/></g></g><g fill="#ffffff" fill-opacity="1"><g transform="translate(123.356881, 200.786777)"><g><path d="M 0.609375 -6.625 L 5.53125 -6.625 L 5.53125 -5.75 L 1.515625 -5.75 L 1.515625 -3.75 L 4.59375 -3.75 L 4.59375 -2.875 L 1.515625 -2.875 L 1.515625 -0.875 L 5.53125 -0.875 L 5.53125 0 L 0.609375 0 Z M 0.609375 -6.625 "/></g></g></g><g fill="#ffffff" fill-opacity="1"><g transform="translate(134.351873, 200.786777)"><g><path d="M 1.5625 -6.625 L 5.78125 -6.625 L 5.78125 -5.75 L 1.921875 -5.75 C 1.804688 -5.75 1.707031 -5.710938 1.625 -5.640625 C 1.550781 -5.566406 1.515625 -5.472656 1.515625 -5.359375 L 1.515625 -4.140625 C 1.515625 -4.035156 1.550781 -3.941406 1.625 -3.859375 C 1.707031 -3.785156 1.804688 -3.75 1.921875 -3.75 L 5.015625 -3.75 C 5.285156 -3.75 5.507812 -3.65625 5.6875 -3.46875 C 5.863281 -3.289062 5.953125 -3.066406 5.953125 -2.796875 L 5.953125 -0.9375 C 5.953125 -0.675781 5.863281 -0.453125 5.6875 -0.265625 C 5.507812 -0.0859375 5.285156 0 5.015625 0 L 0.796875 0 L 0.796875 -0.875 L 4.65625 -0.875 C 4.769531 -0.875 4.863281 -0.910156 4.9375 -0.984375 C 5.019531 -1.054688 5.0625 -1.148438 5.0625 -1.265625 L 5.0625 -2.484375 C 5.0625 -2.585938 5.019531 -2.675781 4.9375 -2.75 C 4.863281 -2.832031 4.769531 -2.875 4.65625 -2.875 L 1.5625 -2.875 C 1.300781 -2.875 1.078125 -2.96875 0.890625 -3.15625 C 0.703125 -3.34375 0.609375 -3.566406 0.609375 -3.828125 L 0.609375 -5.6875 C 0.609375 -5.945312 0.703125 -6.164062 0.890625 -6.34375 C 1.078125 -6.53125 1.300781 -6.625 1.5625 -6.625 Z M 1.5625 -6.625 "/></g></g></g><g fill="#ffffff" fill-opacity="1"><g transform="translate(146.258846, 200.786777)"><g><path d="M 0.09375 -6.625 L 5.4375 -6.625 L 5.4375 -5.75 L 3.21875 -5.75 L 3.21875 0 L 2.3125 0 L 2.3125 -5.75 L 0.09375 -5.75 Z M 0.09375 -6.625 "/></g></g></g><g fill="#ffffff" fill-opacity="1"><g transform="translate(157.117466, 200.786777)"><g><path d="M 2.59375 -6.625 L 3.984375 -6.625 L 6.484375 0 L 5.53125 0 L 4.859375 -1.75 L 1.71875 -1.75 L 1.03125 0 L 0.09375 0 Z M 2.046875 -2.625 L 4.53125 -2.625 L 3.28125 -5.859375 Z M 2.046875 -2.625 "/></g></g></g><g fill="#ffffff" fill-opacity="1"><g transform="translate(169.024444, 200.786777)"><g><path d="M 0.09375 -6.625 L 5.4375 -6.625 L 5.4375 -5.75 L 3.21875 -5.75 L 3.21875 0 L 2.3125 0 L 2.3125 -5.75 L 0.09375 -5.75 Z M 0.09375 -6.625 "/></g></g></g><g fill="#ffffff" fill-opacity="1"><g transform="translate(179.883058, 200.786777)"><g><path d="M 0.609375 -6.625 L 5.53125 -6.625 L 5.53125 -5.75 L 1.515625 -5.75 L 1.515625 -3.75 L 4.59375 -3.75 L 4.59375 -2.875 L 1.515625 -2.875 L 1.515625 -0.875 L 5.53125 -0.875 L 5.53125 0 L 0.609375 0 Z M 0.609375 -6.625 "/></g></g></g><g fill="#ffffff" fill-opacity="1"><g transform="translate(190.878045, 200.786777)"><g/></g></g><g fill="#ffffff" fill-opacity="1"><g transform="translate(198.744985, 200.786777)"><g><path d="M 0.609375 -6.625 L 1.515625 -6.625 L 1.515625 0 L 0.609375 0 Z M 0.609375 -6.625 "/></g></g></g><g fill="#ffffff" fill-opacity="1"><g transform="translate(206.19429, 200.786777)"><g><path d="M 0.609375 -6.625 L 1.515625 -6.625 L 5.0625 -1.46875 L 5.0625 -6.625 L 5.953125 -6.625 L 5.953125 0 L 5.0625 0 L 1.515625 -5.15625 L 1.515625 0 L 0.609375 0 Z M 0.609375 -6.625 "/></g></g></g><g fill="#ffffff" fill-opacity="1"><g transform="translate(218.101268, 200.786777)"><g><path d="M 0.09375 -6.625 L 1.03125 -6.625 L 3.296875 -0.765625 L 5.53125 -6.625 L 6.484375 -6.625 L 4 0 L 2.59375 0 Z M 0.09375 -6.625 "/></g></g></g><g fill="#ffffff" fill-opacity="1"><g transform="translate(230.008247, 200.786777)"><g><path d="M 0.609375 -6.625 L 5.53125 -6.625 L 5.53125 -5.75 L 1.515625 -5.75 L 1.515625 -3.75 L 4.59375 -3.75 L 4.59375 -2.875 L 1.515625 -2.875 L 1.515625 -0.875 L 5.53125 -0.875 L 5.53125 0 L 0.609375 0 Z M 0.609375 -6.625 "/></g></g></g><g fill="#ffffff" fill-opacity="1"><g transform="translate(241.003233, 200.786777)"><g><path d="M 1.5625 -6.625 L 5.78125 -6.625 L 5.78125 -5.75 L 1.921875 -5.75 C 1.804688 -5.75 1.707031 -5.710938 1.625 -5.640625 C 1.550781 -5.566406 1.515625 -5.472656 1.515625 -5.359375 L 1.515625 -4.140625 C 1.515625 -4.035156 1.550781 -3.941406 1.625 -3.859375 C 1.707031 -3.785156 1.804688 -3.75 1.921875 -3.75 L 5.015625 -3.75 C 5.285156 -3.75 5.507812 -3.65625 5.6875 -3.46875 C 5.863281 -3.289062 5.953125 -3.066406 5.953125 -2.796875 L 5.953125 -0.9375 C 5.953125 -0.675781 5.863281 -0.453125 5.6875 -0.265625 C 5.507812 -0.0859375 5.285156 0 5.015625 0 L 0.796875 0 L 0.796875 -0.875 L 4.65625 -0.875 C 4.769531 -0.875 4.863281 -0.910156 4.9375 -0.984375 C 5.019531 -1.054688 5.0625 -1.148438 5.0625 -1.265625 L 5.0625 -2.484375 C 5.0625 -2.585938 5.019531 -2.675781 4.9375 -2.75 C 4.863281 -2.832031 4.769531 -2.875 4.65625 -2.875 L 1.5625 -2.875 C 1.300781 -2.875 1.078125 -2.96875 0.890625 -3.15625 C 0.703125 -3.34375 0.609375 -3.566406 0.609375 -3.828125 L 0.609375 -5.6875 C 0.609375 -5.945312 0.703125 -6.164062 0.890625 -6.34375 C 1.078125 -6.53125 1.300781 -6.625 1.5625 -6.625 Z M 1.5625 -6.625 "/></g></g></g><g fill="#ffffff" fill-opacity="1"><g transform="translate(252.910201, 200.786777)"><g><path d="M 0.09375 -6.625 L 5.4375 -6.625 L 5.4375 -5.75 L 3.21875 -5.75 L 3.21875 0 L 2.3125 0 L 2.3125 -5.75 L 0.09375 -5.75 Z M 0.09375 -6.625 "/></g></g></g><g fill="#ffffff" fill-opacity="1"><g transform="translate(263.768815, 200.786777)"><g><path d="M 0.609375 -6.625 L 1.515625 -6.625 L 3.8125 -1.984375 L 6.09375 -6.625 L 7 -6.625 L 7 0 L 6.109375 0 L 6.109375 -5.140625 L 4.046875 -0.9375 L 3.5625 -0.9375 L 1.515625 -5.140625 L 1.515625 0 L 0.609375 0 Z M 0.609375 -6.625 "/></g></g></g><g fill="#ffffff" fill-opacity="1"><g transform="translate(276.71564, 200.786777)"><g><path d="M 0.609375 -6.625 L 5.53125 -6.625 L 5.53125 -5.75 L 1.515625 -5.75 L 1.515625 -3.75 L 4.59375 -3.75 L 4.59375 -2.875 L 1.515625 -2.875 L 1.515625 -0.875 L 5.53125 -0.875 L 5.53125 0 L 0.609375 0 Z M 0.609375 -6.625 "/></g></g></g><g fill="#ffffff" fill-opacity="1"><g transform="translate(287.710637, 200.786777)"><g><path d="M 0.609375 -6.625 L 1.515625 -6.625 L 5.0625 -1.46875 L 5.0625 -6.625 L 5.953125 -6.625 L 5.953125 0 L 5.0625 0 L 1.515625 -5.15625 L 1.515625 0 L 0.609375 0 Z M 0.609375 -6.625 "/></g></g></g><g fill="#ffffff" fill-opacity="1"><g transform="translate(299.617616, 200.786777)"><g><path d="M 0.09375 -6.625 L 5.4375 -6.625 L 5.4375 -5.75 L 3.21875 -5.75 L 3.21875 0 L 2.3125 0 L 2.3125 -5.75 L 0.09375 -5.75 Z M 0.09375 -6.625 "/></g></g></g></svg>